<svg width="179" height="34" viewBox="0 0 179 34" fill="none" xmlns="http://www.w3.org/2000/svg">
<path fill-rule="evenodd" clip-rule="evenodd" d="M102.549 22.2172C102.174 23.2785 101.642 24.215 100.923 25.0266C100.235 25.8382 99.359 26.4937 98.327 26.9619C97.2949 27.4301 96.1377 27.6799 94.8554 27.6799C94.0736 27.6799 93.323 27.5862 92.6349 27.3677C91.9469 27.1492 91.3214 26.8371 90.7897 26.4313C90.258 26.0255 89.8514 25.4948 89.5387 24.8705C89.2259 24.2462 89.1008 23.5282 89.1008 22.7166C89.1008 21.5304 89.2572 20.4067 89.6012 19.3141C89.9453 18.2216 90.4457 17.2539 91.1024 16.4423C91.7905 15.5995 92.6349 14.944 93.667 14.4445C94.6991 13.9451 95.8875 13.6954 97.2636 13.6954C98.0768 13.6954 98.8274 13.8202 99.5467 14.0387C100.266 14.2572 100.892 14.6006 101.423 15.0376C101.955 15.4746 102.393 16.0365 102.674 16.692C102.956 17.3476 103.112 18.3152 103.112 19.1581C103.112 20.3442 102.924 21.1871 102.549 22.2172ZM99.015 17.4724C98.4833 17.1291 97.7953 16.9418 96.9509 16.9418C96.169 16.9418 95.4809 17.0978 94.9493 17.3788C94.3863 17.6597 93.9172 18.0655 93.5732 18.5337C93.1979 19.002 92.9477 19.5951 92.76 20.2194C92.5724 20.8749 92.4785 21.5304 92.4785 22.2172C92.4785 22.6854 92.5411 23.06 92.6662 23.3409C92.76 23.6219 92.9164 23.8092 93.1353 23.9652C93.3542 24.1213 93.6357 24.2462 93.9797 24.3086C94.355 24.371 94.7616 24.4335 95.262 24.4335C96.0126 24.4335 96.7007 24.2774 97.2323 23.9964C97.7953 23.6843 98.2644 23.3097 98.6397 22.8103C99.015 22.3108 99.2965 21.7489 99.4841 21.1246C99.6718 20.4691 99.7656 19.7824 99.7656 19.0956C99.7343 18.3152 99.4841 17.7846 99.015 17.4724ZM88.319 16.6296H86.5988L85.3166 23.6219C85.3166 23.6843 85.2853 23.7155 85.2853 23.7467V23.934C85.2853 24.0901 85.2853 24.3086 85.9421 24.3086H87.7873L87.2556 27.2741L86.9741 27.3365C86.6614 27.3989 86.3799 27.4614 86.0984 27.555C85.7857 27.6174 85.4417 27.6799 85.0976 27.6799C84.5034 27.6799 83.9718 27.5862 83.5026 27.3989C83.0648 27.2116 82.6582 26.9619 82.3767 26.6498C82.064 26.3376 81.845 25.9318 81.6887 25.4948C81.5636 25.089 81.4698 24.6208 81.4698 24.1525C81.4698 23.9028 81.501 23.6219 81.5636 23.3721L82.7833 16.6296H81.2821L81.8138 13.4456H83.3463L83.8466 10.9172L87.8498 9.85586L87.1618 13.4456H89.8514L88.319 16.6296ZM77.8419 25.2139C77.2476 26.0879 76.497 26.8058 75.5901 27.3365C74.6831 27.8984 73.5572 28.1481 72.2436 28.1481C71.5869 28.1481 70.9301 28.0232 70.3046 27.7423C69.9293 27.5862 69.5853 27.3677 69.2412 27.1492L68.2717 32.7992H64.6125L67.2709 17.8782C67.2709 17.7221 67.3022 17.5349 67.3335 17.3788C67.3647 17.2539 67.3647 17.1291 67.3647 17.0354C67.3647 16.5672 67.2396 16.0989 66.9894 15.6307L66.7705 15.2249L70.2733 13.7266L70.461 14.0387C70.6173 14.2885 70.7424 14.5694 70.805 14.8503C71.2116 14.5694 71.6494 14.3509 72.1185 14.1948C73.4946 13.6954 74.9958 13.6954 76.2468 14.1948C76.8723 14.4445 77.4353 14.7879 77.9044 15.2561C78.3735 15.7244 78.7488 16.255 79.0303 16.8793C79.3118 17.5036 79.4369 18.1904 79.4369 18.9083C79.4369 20.0321 79.3118 21.1246 79.0616 22.2172C78.8427 23.3721 78.4361 24.3398 77.8419 25.2139ZM75.4337 17.6909C75.0897 17.3163 74.5893 17.1603 73.9012 17.1603C73.307 17.1603 72.744 17.2851 72.2436 17.5036C71.7432 17.7221 71.2741 18.0031 70.8675 18.3777L69.9918 23.4346C70.3046 23.8092 70.7112 24.1525 71.1177 24.4647C71.5869 24.7768 72.056 24.9329 72.6189 24.9329C73.307 24.9329 73.8074 24.7768 74.2452 24.4335C74.6831 24.0901 75.0271 23.6219 75.2773 23.0912C75.5275 22.5293 75.7152 21.905 75.8403 21.2495C75.9341 20.5628 75.9966 19.9384 75.9966 19.3454C75.9654 18.5962 75.7777 18.0343 75.4337 17.6909ZM57.5131 31.2384C57.2942 31.5818 57.0127 31.894 56.7 32.1749C56.3872 32.4558 56.0119 32.7056 55.6053 32.8616C55.1988 33.0489 54.6984 33.1114 54.1667 33.1114C53.8227 33.1114 53.4474 33.0801 53.0721 33.0177C52.6968 32.9553 52.3528 32.8928 52.04 32.7992L51.696 32.7056L52.1026 29.7713H53.7914C54.0729 29.7713 54.2918 29.7401 54.5107 29.6464C54.6671 29.584 54.7922 29.4591 54.886 29.2406L55.6053 27.7111C55.2926 27.5238 55.0111 27.2741 54.7609 26.9931C54.4482 26.5873 54.2293 26.1191 54.0729 25.6197L51.4145 14.7255L54.9798 13.7266L57.4818 23.934L62.5484 13.7266L65.9574 14.7567L58.1386 30.2083C57.951 30.5517 57.732 30.8951 57.5131 31.2384ZM48.85 17.9094C48.5372 17.7534 48.287 17.5973 48.0994 17.5349C47.9117 17.4724 47.7553 17.4412 47.5677 17.4412C47.1611 17.4412 46.8484 17.5661 46.5669 17.7846C46.2541 18.0343 45.9727 18.3465 45.7537 18.721C45.5348 19.0956 45.3784 19.5951 45.2221 20.0321C45.097 20.5003 44.9719 20.9373 44.9093 21.3119L43.7209 27.7111H40.1242L41.8444 17.8782C41.8756 17.6909 41.9069 17.5349 41.9069 17.3788C41.9069 17.2227 41.9382 17.0666 41.9382 16.9105C41.9382 16.4111 41.8444 16.0053 41.6567 15.6307L41.4378 15.2249L44.878 13.7266L45.0657 14.0387C45.1908 14.2885 45.3159 14.507 45.3784 14.7567C45.6599 14.5382 45.9414 14.3509 46.2541 14.1948C47.5051 13.6017 48.9438 13.6641 50.6326 14.5694L50.9767 14.7567L49.194 18.0967L48.85 17.9094ZM37.6848 11.2606C37.1531 10.605 36.5589 10.1368 35.9334 9.85586C35.3079 9.57492 34.5573 9.45006 33.6816 9.45006C32.3055 9.45006 31.1483 9.69979 30.1788 10.2304C29.2093 10.7611 28.4274 11.4478 27.8019 12.2907C27.1764 13.1647 26.7073 14.1948 26.4258 15.3186C26.113 16.4735 25.9879 17.6909 25.9879 18.9396C25.9879 19.6263 26.0818 20.2506 26.2381 20.8125C26.3945 21.3431 26.6447 21.7802 26.9887 22.186C27.3328 22.5605 27.8019 22.8727 28.4274 23.0912C29.0529 23.3097 29.8348 23.4346 30.773 23.4346C31.6174 23.4346 32.4306 23.2785 33.1812 22.9663C33.9631 22.6542 34.6824 22.2172 35.3392 21.6553L36.0585 21.031L38.8732 24.1525L38.1852 24.7768C37.1218 25.7445 35.8708 26.4937 34.5573 26.9619C33.2125 27.4301 31.8051 27.6799 30.3664 27.6799C28.8027 27.6799 27.4266 27.4614 26.3007 27.0243C25.1435 26.5873 24.2053 25.963 23.5172 25.1826C22.7979 24.4022 22.2975 23.4658 21.9847 22.4045C21.672 21.3744 21.5156 20.2506 21.5156 19.0644C21.5156 17.1291 21.7658 15.3186 22.2975 13.6329C22.8292 11.9473 23.6423 10.449 24.7057 9.20034C25.769 7.95172 27.1138 6.95283 28.7089 6.23487C30.3039 5.51692 32.1491 5.14233 34.2445 5.14233C35.6832 5.14233 36.9967 5.36084 38.1852 5.82907C39.4049 6.2973 40.4683 7.10891 41.3752 8.29509L41.7193 8.73211L38.1539 11.7288L37.6848 11.2606Z" fill="#F5B126"/>
<path fill-rule="evenodd" clip-rule="evenodd" d="M37.874 1.05295C38.9373 1.67725 39.3126 3.01952 38.6871 4.08084L24.457 29.1468C23.8315 30.2082 22.4867 30.5828 21.4233 29.9584C20.36 29.3341 19.9847 27.9919 20.6102 26.9305L34.8403 1.86455C35.4345 0.803222 36.8106 0.428637 37.874 1.05295Z" fill="#28323E"/>
<path fill-rule="evenodd" clip-rule="evenodd" d="M32.1816 4.17432C25.4574 4.17432 20.0156 9.66823 20.0156 16.4108C20.0156 20.063 21.6106 23.3406 24.1439 25.5881L36.2473 4.89227C34.965 4.45526 33.5889 4.17432 32.1816 4.17432ZM13.698 19.9381H8.25619C6.97392 19.9381 5.91057 20.9682 5.91057 22.2793C5.91057 23.5591 6.94265 24.6204 8.25619 24.6204H13.698C14.9803 24.6204 16.0437 23.5903 16.0437 22.2793C16.0437 20.9682 14.9803 19.9381 13.698 19.9381ZM12.9162 14.6003V14.3818C12.9162 13.1644 11.9154 12.1655 10.6956 12.1655H2.72052C1.5008 12.1655 0.5 13.1644 0.5 14.3818V14.6003C0.5 15.8177 1.5008 16.8166 2.72052 16.8166H10.6956C11.9154 16.8166 12.9162 15.8177 12.9162 14.6003ZM15.3556 4.42404H9.72612C8.50639 4.42404 7.5056 5.42293 7.5056 6.64034V6.85884C7.5056 8.07625 8.50639 9.07514 9.72612 9.07514H15.3869C16.6066 9.07514 17.6074 8.07625 17.6074 6.85884V6.64034C17.5761 5.39172 16.6066 4.42404 15.3556 4.42404Z" fill="#F5B126"/>
<path fill-rule="evenodd" clip-rule="evenodd" d="M175.86 18.5336L175.609 18.1902C175.359 17.8781 175.046 17.5971 174.702 17.3786C174.39 17.1601 173.858 17.0665 173.139 17.0665C172.92 17.0665 172.638 17.0977 172.388 17.1289C172.138 17.1601 171.919 17.2225 171.731 17.3162C171.544 17.4098 171.419 17.5035 171.293 17.6283C171.2 17.722 171.168 17.8468 171.168 18.0341C171.168 18.1902 171.2 18.3775 171.481 18.5648C171.794 18.7521 172.2 18.9394 172.67 19.1267C173.17 19.314 173.733 19.47 174.327 19.6573C174.953 19.8446 175.547 20.0631 176.079 20.3441C176.641 20.625 177.111 21.0308 177.486 21.499C177.892 21.9985 178.111 22.6228 178.111 23.4032C178.111 24.3084 177.924 25.12 177.517 25.7756C177.142 26.3999 176.641 26.9305 176.016 27.3675C175.422 27.7733 174.734 28.0543 174.014 28.2416C173.295 28.4289 172.544 28.5225 171.856 28.5225C170.574 28.5225 169.417 28.2728 168.416 27.7733C167.384 27.2427 166.633 26.3999 166.196 25.2761L166.071 24.9327L169.073 23.2783L169.261 23.6529C169.573 24.246 169.98 24.6518 170.48 24.8391C171.043 25.0576 171.669 25.1512 172.263 25.1512C172.951 25.1512 173.514 25.0264 173.921 24.8079C174.265 24.6206 174.39 24.3709 174.39 23.9338C174.39 23.6841 174.296 23.528 174.077 23.372C173.764 23.1535 173.358 22.9662 172.888 22.8101C172.388 22.6228 171.856 22.4667 171.262 22.3106C170.637 22.1234 170.074 21.9048 169.542 21.6239C168.979 21.3118 168.51 20.9372 168.135 20.4377C167.728 19.9071 167.54 19.2515 167.54 18.4087C167.54 17.5035 167.728 16.7543 168.135 16.1612C168.51 15.5681 169.01 15.0999 169.636 14.7253C170.23 14.3819 170.887 14.1322 171.575 13.9761C173.326 13.6015 174.984 13.6952 176.329 14.3507C177.142 14.7565 177.83 15.3184 178.299 16.0363L178.518 16.3797L175.86 18.5336ZM163.225 25.1512H165.289L164.788 28.0543L164.538 28.1167C164.194 28.2104 163.85 28.304 163.506 28.3664C163.162 28.4289 162.787 28.4601 162.443 28.4601C161.285 28.4601 160.441 28.1167 159.878 27.4612C159.346 26.8369 159.065 25.9941 159.065 25.0264C159.065 24.9015 159.065 24.7454 159.065 24.5894C159.065 24.4021 159.096 24.246 159.127 24.0899L161.536 10.043L165.195 9.04409L162.599 24.4021C162.599 24.4645 162.568 24.4957 162.568 24.5269V24.683C162.568 24.9015 162.568 25.1512 163.225 25.1512ZM156.219 25.1512H158.283L157.783 28.0543L157.532 28.1167C157.188 28.2104 156.844 28.304 156.5 28.3664C156.156 28.4289 155.781 28.4601 155.437 28.4601C154.28 28.4601 153.435 27.3675 152.872 26.712C152.341 26.0877 152.059 26.0253 152.059 25.0576C152.059 24.9327 152.059 24.7767 152.059 24.6206C152.059 24.4333 152.091 24.2772 152.122 24.1211L154.53 10.0742L158.189 9.07531L155.593 24.4333C155.593 24.4957 155.562 24.5269 155.562 24.5582V24.7142C155.593 24.9015 155.593 25.1512 156.219 25.1512ZM149.401 12.9772C148.901 12.9772 148.431 12.7899 148.087 12.4154C147.712 12.0408 147.524 11.5725 147.524 11.0107C147.524 10.48 147.712 10.0118 148.087 9.63718C148.463 9.2626 148.901 9.07531 149.401 9.07531C149.901 9.07531 150.339 9.2626 150.715 9.63718C151.09 10.0118 151.277 10.48 151.277 11.0107C151.277 11.5725 151.09 12.0408 150.715 12.4154C150.371 12.7899 149.901 12.9772 149.401 12.9772ZM148.525 28.4601H145.054L147.368 14.3819H150.84L148.525 28.4601ZM143.897 11.8847C143.553 11.8847 143.302 11.9783 143.115 12.1344C142.927 12.2905 142.802 12.509 142.739 12.8524L142.583 13.7888H145.648L144.084 16.9728H142.051L139.987 28.9907C139.737 30.333 139.205 31.3631 138.361 32.0499C137.516 32.7366 136.516 33.1112 135.39 33.1112C135.077 33.1112 134.702 33.08 134.295 32.9863C133.889 32.9239 133.545 32.8302 133.263 32.799L132.857 32.7366L133.357 29.7399H134.983C135.327 29.7399 135.64 29.6463 135.953 29.459C136.203 29.3029 136.359 29.0844 136.422 28.741L138.455 16.9728H136.672L137.266 13.7888H139.049L139.237 12.6026C139.299 12.072 139.456 11.5725 139.706 11.0731C139.925 10.5736 140.237 10.1054 140.644 9.76204C141.019 9.38746 141.488 9.0753 142.02 8.8568C142.552 8.63829 143.177 8.51343 143.834 8.51343C144.209 8.51343 144.585 8.54464 144.96 8.60707C145.335 8.6695 145.679 8.73194 146.023 8.82558L146.399 8.91923L145.898 11.9159H143.897V11.8847ZM133.701 22.0297C133.107 22.4043 132.419 22.654 131.637 22.8413C130.886 22.9974 130.073 23.1222 129.229 23.1535L126.007 23.372C126.039 23.6217 126.101 23.8402 126.164 23.9963C126.289 24.246 126.445 24.4645 126.664 24.6206C126.883 24.7767 127.133 24.9015 127.446 24.9327C127.79 24.9952 128.134 25.0264 128.541 25.0264C129.135 25.0264 129.666 24.9327 130.167 24.7142C130.636 24.5269 131.105 24.1836 131.512 23.7466L131.824 23.372L134.858 24.8079L134.295 25.5258C133.513 26.5247 132.606 27.2739 131.574 27.7421C130.542 28.2104 129.416 28.4289 128.228 28.4289C127.383 28.4289 126.602 28.3352 125.913 28.1479C125.194 27.9606 124.569 27.6173 124.068 27.1803C123.568 26.7432 123.161 26.1501 122.88 25.4634C122.598 24.7767 122.473 23.9651 122.473 22.9974C122.473 21.7488 122.63 20.5626 122.974 19.4388C123.318 18.3151 123.818 17.3162 124.506 16.4734C125.194 15.5993 126.039 14.9126 127.071 14.4131C128.071 13.9137 129.26 13.664 130.573 13.664C131.23 13.664 131.856 13.7576 132.45 13.9137C133.075 14.0698 133.638 14.3195 134.108 14.6629C134.577 15.0062 134.983 15.4745 135.265 16.0363C135.546 16.5982 135.703 17.3162 135.703 18.0966C135.703 19.0642 135.515 19.8446 135.14 20.4689C134.827 21.1557 134.326 21.6551 133.701 22.0297ZM132.262 18.0966C132.262 17.9093 132.231 17.7532 132.137 17.6283C132.012 17.5035 131.856 17.3786 131.668 17.3162C131.449 17.2225 131.23 17.1913 130.98 17.1601C130.699 17.1289 130.48 17.1289 130.261 17.1289C129.229 17.1289 128.384 17.441 127.727 18.0653C127.196 18.5648 126.789 19.1891 126.508 19.9383L129.479 19.751C129.823 19.7198 130.167 19.6885 130.542 19.6261C130.886 19.5637 131.199 19.47 131.449 19.3452C131.699 19.2203 131.918 19.0642 132.075 18.8457C132.2 18.6584 132.262 18.4087 132.262 18.0966ZM116.281 20.5314L118.564 24.5894C118.751 24.9327 118.877 24.964 118.877 24.9952C118.939 25.0264 119.127 25.0576 119.533 25.0576H120.347L119.909 28.0231L119.721 28.1167C119.44 28.2416 119.158 28.3664 118.908 28.3977C118.658 28.4601 118.376 28.4601 118.095 28.4601C117.438 28.4601 116.844 28.2416 116.375 27.8046C115.937 27.3988 115.593 26.9617 115.311 26.4623L112.184 20.9996C112.121 20.8747 112.027 20.8123 111.902 20.7811C111.715 20.7187 111.527 20.6874 111.339 20.6874H109.713L108.556 28.4601H104.678L107.899 9.04409H116.656C117.375 9.04409 118.032 9.13774 118.658 9.35624C119.283 9.57475 119.815 9.88691 120.284 10.2615C120.753 10.6673 121.128 11.198 121.41 11.791C121.66 12.3841 121.816 13.1021 121.816 13.8825C121.816 15.7554 121.253 17.3162 120.19 18.5024C119.158 19.5949 117.876 20.2504 116.281 20.5314ZM110.276 17.1289H114.842C115.905 17.1289 116.719 16.9104 117.25 16.4421C117.751 16.0051 118.001 15.256 118.001 14.1946C118.001 13.6328 117.845 13.2582 117.532 13.0397C117.156 12.7899 116.687 12.6651 116.156 12.6651H111.058L110.276 17.1289Z" fill="#28323E"/>
<path fill-rule="evenodd" clip-rule="evenodd" d="M26.2382 22.0298C24.7683 20.6251 23.8613 18.6273 23.8613 16.411C23.8613 12.1033 27.3328 8.60718 31.5862 8.60718C32.2743 8.60718 32.9311 8.70082 33.5566 8.8569L33.838 8.95055L26.2382 22.0298Z" fill="#EED92C"/>
</svg>
