<svg width="96" height="96" viewBox="0 0 96 96" fill="none" xmlns="http://www.w3.org/2000/svg">
<path fill-rule="evenodd" clip-rule="evenodd" d="M88 16H8V75H88V16Z" fill="url(#paint0_linear)"/>
<path d="M51 8L55 4L59 8L55 12L51 8Z" fill="#E6E8EA"/>
<circle r="20" transform="matrix(1 0 0 -1 72 68)" fill="#F8D33A"/>
<circle r="14.4828" transform="matrix(1 0 0 -1 72.0003 67.9989)" fill="url(#paint1_linear)"/>
<path d="M64.4141 67.9995L72.0003 75.5857L79.5865 67.9995L72.0003 60.4133L64.4141 67.9995Z" fill="#F0B90B"/>
<path d="M88 40L8 40L8 28L88 28L88 40Z" fill="url(#paint2_linear)"/>
<path d="M40 56L16 56L16 48L40 48L40 56Z" fill="#E6E8EA"/>
<path d="M16 83L19 86L22 83L19 80L16 83Z" fill="#E6E8EA"/>
<path d="M1 31H4V28H1V31Z" fill="#E6E8EA"/>
<defs>
<linearGradient id="paint0_linear" x1="88" y1="16" x2="8" y2="16" gradientUnits="userSpaceOnUse">
<stop stop-color="#929AA5"/>
<stop offset="1" stop-color="#76808F"/>
</linearGradient>
<linearGradient id="paint1_linear" x1="14.4828" y1="0" x2="14.4828" y2="28.9655" gradientUnits="userSpaceOnUse">
<stop stop-color="#F0B90B"/>
<stop offset="1" stop-color="#F8D33A"/>
</linearGradient>
<linearGradient id="paint2_linear" x1="8" y1="34" x2="88" y2="34" gradientUnits="userSpaceOnUse">
<stop stop-color="#F0B90B"/>
<stop offset="1" stop-color="#F8D33A"/>
</linearGradient>
</defs>
</svg>
