<svg width="538" height="317" viewBox="0 0 538 317" fill="none" xmlns="http://www.w3.org/2000/svg">
<path opacity="0.5" d="M448.681 316C457.278 294.168 462 270.385 462 245.5C462 139.185 375.815 53 269.5 53C163.185 53 77 139.185 77 245.5C77 270.385 81.722 294.168 90.319 316" stroke="url(#paint0_linear)" stroke-width="3"/>
<g filter="url(#filter0_d)">
<circle r="37.5" transform="matrix(-1 0 0 1 461.5 239.5)" fill="white"/>
</g>
<g filter="url(#filter1_d)">
<circle r="37.5" transform="matrix(-1 0 0 1 270.5 53.5)" fill="white"/>
</g>
<path fill-rule="evenodd" clip-rule="evenodd" d="M291 37H251V66.5H291V37Z" fill="url(#paint1_linear)"/>
<path d="M272.5 33L274.5 31L276.5 33L274.5 35L272.5 33Z" fill="#E6E8EA"/>
<circle r="10" transform="matrix(1 0 0 -1 283 63)" fill="#F8D33A"/>
<ellipse rx="7.24138" ry="7.24138" transform="matrix(1 0 0 -1 283 62.9996)" fill="url(#paint2_linear)"/>
<path d="M279.207 62.9999L283 66.793L286.793 62.9999L283 59.2068L279.207 62.9999Z" fill="#F0B90B"/>
<path d="M291 49L251 49L251 43L291 43L291 49Z" fill="url(#paint3_linear)"/>
<path d="M267 57L255 57L255 53L267 53L267 57Z" fill="#E6E8EA"/>
<path d="M255 70.5L256.5 72L258 70.5L256.5 69L255 70.5Z" fill="#E6E8EA"/>
<path d="M247.5 44.5H249V43H247.5V44.5Z" fill="#E6E8EA"/>
<g filter="url(#filter2_d)">
<circle r="37.5" transform="matrix(-1 0 0 1 134.5 104.5)" fill="white"/>
</g>
<rect x="119" y="96" width="32" height="12" fill="url(#paint4_linear)"/>
<rect x="119" y="96" width="32" height="22" fill="url(#paint5_linear)"/>
<path fill-rule="evenodd" clip-rule="evenodd" d="M127 104V92C127 87.5817 130.582 84 135 84C139.418 84 143 87.5817 143 92V104H145V92C145 86.4772 140.523 82 135 82C129.477 82 125 86.4772 125 92V104H127Z" fill="url(#paint6_linear)"/>
<rect x="119" y="118" width="32" height="6" fill="#76808F"/>
<path d="M130 110L135 115L140 110L135 105L130 110Z" fill="url(#paint7_linear)"/>
<path d="M149 90L151 92L153 90L151 88L149 90Z" fill="#E6E8EA"/>
<path d="M113.5 102.5L115 104L116.5 102.5L115 101L113.5 102.5Z" fill="#E6E8EA"/>
<path d="M154 120H156V118H154V120Z" fill="#E6E8EA"/>
<g filter="url(#filter3_d)">
<circle r="37.5" transform="matrix(-1 0 0 1 77.5 239.5)" fill="white"/>
</g>
<rect width="14.1667" height="7.5" transform="matrix(1 0 0 -1 61.3333 236.083)" fill="url(#paint8_linear)"/>
<rect x="94.6667" y="236.083" width="14.1667" height="7.5" transform="rotate(-180 94.6667 236.083)" fill="url(#paint9_linear)"/>
<rect width="12.5" height="17.9167" transform="matrix(1 0 0 -1 63 254)" fill="url(#paint10_linear)"/>
<rect x="93" y="254" width="12.5" height="17.9167" transform="rotate(-180 93 254)" fill="url(#paint11_linear)"/>
<rect x="77.1667" y="228.583" width="1.66667" height="7.5" fill="#76808F"/>
<rect x="77.1667" y="236.083" width="1.66667" height="17.9167" fill="url(#paint12_linear)"/>
<path d="M78.8333 222.333H77.1666V225.738L74.8392 223.411L73.6607 224.589L75.9881 226.917L72.5833 226.917V228.583L83.4166 228.583V226.917H80.0117L82.3391 224.589L81.1606 223.411L78.8333 225.738V222.333Z" fill="url(#paint13_linear)"/>
<path d="M88 224L89.6667 225.667L91.3333 224L89.6667 222.333L88 224Z" fill="#E6E8EA"/>
<path d="M58.8333 240.25L60.0833 241.5L61.3333 240.25L60.0833 239L58.8333 240.25Z" fill="#E6E8EA"/>
<path d="M83.8333 256.917H85.0833V255.667H83.8333V256.917Z" fill="#E6E8EA"/>
<path fill-rule="evenodd" clip-rule="evenodd" d="M238.622 171.231L223.921 185.933L201.58 185.812L201.649 203.162L223.99 203.282C228.591 203.301 232.997 201.491 236.238 198.25L250.939 183.548L238.622 171.231Z" fill="#FFBEA6"/>
<path fill-rule="evenodd" clip-rule="evenodd" d="M298.315 171.231L313.017 185.933L335.358 185.812L335.289 203.162L312.948 203.282C308.346 203.301 303.941 201.491 300.7 198.25L285.998 183.548L298.315 171.231Z" fill="#FFBEA6"/>
<path d="M184.904 184.122L174 195.026L184.904 205.931L195.809 195.026L184.904 184.122Z" fill="#FFBEA6"/>
<path d="M352.033 184.122L362.938 195.026L352.033 205.931L341.129 195.026L352.033 184.122Z" fill="#FFBEA6"/>
<path fill-rule="evenodd" clip-rule="evenodd" d="M229.545 260.176H250.546V279.633L229.545 279.633C212.21 279.633 203.529 258.675 215.786 246.417L239.136 223.067L252.895 236.826L229.545 260.176Z" fill="#FFBEA6"/>
<path fill-rule="evenodd" clip-rule="evenodd" d="M306.986 260.176H285.985V279.633L306.986 279.633C324.321 279.633 333.003 258.675 320.745 246.417L297.395 223.067L283.636 236.826L306.986 260.176Z" fill="#FFBEA6"/>
<g style="mix-blend-mode:soft-light" opacity="0.6">
<path fill-rule="evenodd" clip-rule="evenodd" d="M306.987 260.181H287.723L287.723 279.639L306.987 279.639C324.322 279.639 333.004 258.68 320.746 246.422L305.287 230.965L291.528 244.724L306.987 260.181Z" fill="url(#paint14_linear)"/>
</g>
<g style="mix-blend-mode:soft-light" opacity="0.6">
<path fill-rule="evenodd" clip-rule="evenodd" d="M229.724 260.181H248.988L248.988 279.639L229.724 279.639C212.389 279.639 203.707 258.68 215.965 246.422L231.424 230.965L245.183 244.724L229.724 260.181Z" fill="url(#paint15_linear)"/>
</g>
<path d="M248.812 260.18L248.812 279.638L258.541 289.366L268.27 299.095L268.27 279.638L268.27 260.18L248.812 260.18Z" fill="#5E6673"/>
<path d="M287.727 260.18L287.727 279.638L277.998 289.366L268.27 299.095L268.27 279.638L268.27 260.18L287.727 260.18Z" fill="#5E6673"/>
<g style="mix-blend-mode:soft-light" opacity="0.6">
<path d="M287.727 260.18L287.727 279.638L277.998 289.366L268.27 299.095L268.27 279.638L268.27 260.18L287.727 260.18Z" fill="url(#paint16_linear)"/>
</g>
<path fill-rule="evenodd" clip-rule="evenodd" d="M222.591 236.686L252.074 207.203L269.764 224.893L240.281 254.376L222.591 236.686Z" fill="#328DFD"/>
<path fill-rule="evenodd" clip-rule="evenodd" d="M313.94 236.686L284.457 207.203L266.767 224.893L296.25 254.376L313.94 236.686Z" fill="#328DFD"/>
<path fill-rule="evenodd" clip-rule="evenodd" d="M246.711 207.707L288.406 207.707L288.406 235.504L246.711 235.504L246.711 207.707Z" fill="#328DFD"/>
<path fill-rule="evenodd" clip-rule="evenodd" d="M290.842 158.378L306.13 173.666L290.406 189.391L275.117 174.102L290.842 158.378Z" fill="#474D57"/>
<g style="mix-blend-mode:soft-light" opacity="0.6">
<path fill-rule="evenodd" clip-rule="evenodd" d="M290.842 158.378L306.13 173.666L290.406 189.391L275.117 174.102L290.842 158.378Z" fill="url(#paint17_linear)"/>
</g>
<path fill-rule="evenodd" clip-rule="evenodd" d="M229.656 173.678L244.945 158.39L260.669 174.114L245.381 189.402L229.656 173.678Z" fill="#474D57"/>
<g style="mix-blend-mode:soft-light" opacity="0.6">
<path fill-rule="evenodd" clip-rule="evenodd" d="M229.656 173.678L244.945 158.39L260.669 174.114L245.381 189.402L229.656 173.678Z" fill="url(#paint18_linear)"/>
</g>
<path fill-rule="evenodd" clip-rule="evenodd" d="M278.162 158.371L267.999 168.146L257.837 158.371H244.973V174.781V188.68V200.904V213.965H290.838V200.904V188.68V174.781V158.371H278.162Z" fill="#474D57"/>
<path d="M250.531 134.068C250.531 144.046 258.621 152.136 268.599 152.136C278.578 152.136 286.667 144.046 286.667 134.068L250.531 134.068Z" fill="#FFBEA6"/>
<path d="M250.532 134.068C250.532 124.089 258.622 116 268.6 116C278.579 116 286.668 124.089 286.668 134.068L250.532 134.068Z" fill="#935A30"/>
<path opacity="0.5" d="M210.227 315.825H326.227V312.825H210.227V315.825Z" fill="#E6E8EA"/>
<g filter="url(#filter4_d)">
<circle r="37.5" transform="matrix(-1 0 0 1 406.5 104.5)" fill="white"/>
</g>
<path d="M418.5 84L419.5 83L420.5 84L419.5 85L418.5 84Z" fill="#E6E8EA"/>
<path d="M385 119L386.5 117.5L388 119L386.5 120.5L385 119Z" fill="#E6E8EA"/>
<path d="M427 114.25L427.75 113.5L428.5 114.25L427.75 115L427 114.25Z" fill="#E6E8EA"/>
<path d="M423.5 113.07V120.5H416.07L412.895 126L407 122.597L401.105 126L397.93 120.5H390.5V113.07L385 109.895L388.403 104L385 98.1051L390.5 94.9297V87.5H397.93L401.105 82L407 85.4033L412.895 82L416.07 87.5H423.5V94.9296L429 98.1051L425.597 104L429 109.895L423.5 113.07Z" fill="#E6E8EA"/>
<path d="M420.5 111.421V117.5H414.421L411.823 122L407 119.215L402.177 122L399.579 117.5H393.5V111.421L389 108.823L391.785 104L389 99.1769L393.5 96.5788V90.5H399.579L402.177 86L407 88.7845L411.823 86L414.421 90.5H420.5V96.5788L425 99.1769L422.215 104L425 108.823L420.5 111.421Z" fill="url(#paint19_linear)"/>
<path d="M402.848 113.184L414.326 94.8158H411.152L399.674 113.184H402.848ZM400.838 104.921C403.641 104.921 405.175 103.395 405.175 99.7105C405.175 96.0263 403.641 94.5 400.838 94.5C398.034 94.5 396.5 96.0263 396.5 99.7105C396.5 103.395 398.034 104.921 400.838 104.921ZM400.838 102.816C400.018 102.816 399.647 102.289 399.647 101.237V98.1842C399.647 97.1316 400.018 96.6053 400.838 96.6053C401.657 96.6053 402.028 97.1316 402.028 98.1842V101.237C402.028 102.289 401.657 102.816 400.838 102.816ZM413.162 113.5C415.966 113.5 417.5 111.974 417.5 108.289C417.5 104.605 415.966 103.079 413.162 103.079C410.359 103.079 408.825 104.605 408.825 108.289C408.825 111.974 410.359 113.5 413.162 113.5ZM413.162 111.395C412.343 111.395 411.972 110.868 411.972 109.816V106.763C411.972 105.711 412.343 105.184 413.162 105.184C413.982 105.184 414.353 105.711 414.353 106.763V109.816C414.353 110.868 413.982 111.395 413.162 111.395Z" fill="url(#paint20_linear)"/>
<path opacity="0.5" d="M326 113L336 103L346 113L336 123L326 113Z" fill="#E6E8EA"/>
<path opacity="0.5" d="M202 34.5L206.5 30L211 34.5L206.5 39L202 34.5Z" fill="#E6E8EA"/>
<path opacity="0.5" d="M145 257L151 251L157 257L151 263L145 257Z" fill="#E6E8EA"/>
<circle cx="462" cy="239" r="20" fill="url(#paint21_linear)"/>
<ellipse rx="18.3333" ry="18.3333" transform="matrix(1 0 0 -1 462 239)" fill="url(#paint22_linear)"/>
<ellipse rx="16.6667" ry="16.6667" transform="matrix(-4.37114e-08 -1 -1 4.37114e-08 462.049 239.049)" fill="white"/>
<path d="M476.603 242.674C474.607 250.721 466.449 255.598 458.424 253.603C450.398 251.607 445.499 243.449 447.494 235.425C449.49 227.377 457.626 222.5 465.673 224.496C473.721 226.513 478.598 234.649 476.603 242.674Z" fill="#F6921A"/>
<path d="M468.548 236.819C468.836 234.824 467.329 233.76 465.245 233.029L465.91 230.324L464.27 229.903L463.604 232.541C463.161 232.43 462.718 232.341 462.296 232.231L462.962 229.57L461.321 229.149L460.656 231.854C460.301 231.765 459.947 231.699 459.614 231.61L457.353 231.033L456.909 232.785C456.909 232.785 458.129 233.073 458.106 233.073C458.772 233.25 458.905 233.672 458.882 234.026L458.106 237.108C458.151 237.13 458.217 237.13 458.284 237.152C458.24 237.13 458.173 237.13 458.106 237.108L457.02 241.43C456.932 241.63 456.732 241.94 456.266 241.829C456.289 241.852 455.069 241.541 455.069 241.541L454.249 243.426L456.399 243.958C456.799 244.068 457.198 244.157 457.574 244.268L456.887 246.995L458.528 247.416L459.193 244.711C459.636 244.844 460.08 244.955 460.501 245.044L459.836 247.726L461.476 248.147L462.163 245.421C464.979 245.953 467.085 245.731 467.972 243.204C468.681 241.164 467.928 239.989 466.464 239.214C467.528 238.992 468.327 238.283 468.548 236.819ZM464.779 242.095C464.27 244.135 460.833 243.027 459.703 242.761L460.612 239.147C461.742 239.413 465.312 239.967 464.779 242.095ZM465.289 236.797C464.824 238.659 461.964 237.706 461.033 237.484L461.853 234.204C462.784 234.425 465.777 234.846 465.289 236.797Z" fill="white"/>
<defs>
<filter id="filter0_d" x="408.246" y="186.246" width="106.508" height="106.508" filterUnits="userSpaceOnUse" color-interpolation-filters="sRGB">
<feFlood flood-opacity="0" result="BackgroundImageFix"/>
<feColorMatrix in="SourceAlpha" type="matrix" values="0 0 0 0 0 0 0 0 0 0 0 0 0 0 0 0 0 0 127 0" result="hardAlpha"/>
<feOffset/>
<feGaussianBlur stdDeviation="7.87701"/>
<feColorMatrix type="matrix" values="0 0 0 0 0 0 0 0 0 0 0 0 0 0 0 0 0 0 0.03 0"/>
<feBlend mode="normal" in2="BackgroundImageFix" result="effect1_dropShadow"/>
<feBlend mode="normal" in="SourceGraphic" in2="effect1_dropShadow" result="shape"/>
</filter>
<filter id="filter1_d" x="217.246" y="0.245974" width="106.508" height="106.508" filterUnits="userSpaceOnUse" color-interpolation-filters="sRGB">
<feFlood flood-opacity="0" result="BackgroundImageFix"/>
<feColorMatrix in="SourceAlpha" type="matrix" values="0 0 0 0 0 0 0 0 0 0 0 0 0 0 0 0 0 0 127 0" result="hardAlpha"/>
<feOffset/>
<feGaussianBlur stdDeviation="7.87701"/>
<feColorMatrix type="matrix" values="0 0 0 0 0 0 0 0 0 0 0 0 0 0 0 0 0 0 0.03 0"/>
<feBlend mode="normal" in2="BackgroundImageFix" result="effect1_dropShadow"/>
<feBlend mode="normal" in="SourceGraphic" in2="effect1_dropShadow" result="shape"/>
</filter>
<filter id="filter2_d" x="81.246" y="51.246" width="106.508" height="106.508" filterUnits="userSpaceOnUse" color-interpolation-filters="sRGB">
<feFlood flood-opacity="0" result="BackgroundImageFix"/>
<feColorMatrix in="SourceAlpha" type="matrix" values="0 0 0 0 0 0 0 0 0 0 0 0 0 0 0 0 0 0 127 0" result="hardAlpha"/>
<feOffset/>
<feGaussianBlur stdDeviation="7.87701"/>
<feColorMatrix type="matrix" values="0 0 0 0 0 0 0 0 0 0 0 0 0 0 0 0 0 0 0.03 0"/>
<feBlend mode="normal" in2="BackgroundImageFix" result="effect1_dropShadow"/>
<feBlend mode="normal" in="SourceGraphic" in2="effect1_dropShadow" result="shape"/>
</filter>
<filter id="filter3_d" x="24.246" y="186.246" width="106.508" height="106.508" filterUnits="userSpaceOnUse" color-interpolation-filters="sRGB">
<feFlood flood-opacity="0" result="BackgroundImageFix"/>
<feColorMatrix in="SourceAlpha" type="matrix" values="0 0 0 0 0 0 0 0 0 0 0 0 0 0 0 0 0 0 127 0" result="hardAlpha"/>
<feOffset/>
<feGaussianBlur stdDeviation="7.87701"/>
<feColorMatrix type="matrix" values="0 0 0 0 0 0 0 0 0 0 0 0 0 0 0 0 0 0 0.03 0"/>
<feBlend mode="normal" in2="BackgroundImageFix" result="effect1_dropShadow"/>
<feBlend mode="normal" in="SourceGraphic" in2="effect1_dropShadow" result="shape"/>
</filter>
<filter id="filter4_d" x="353.246" y="51.246" width="106.508" height="106.508" filterUnits="userSpaceOnUse" color-interpolation-filters="sRGB">
<feFlood flood-opacity="0" result="BackgroundImageFix"/>
<feColorMatrix in="SourceAlpha" type="matrix" values="0 0 0 0 0 0 0 0 0 0 0 0 0 0 0 0 0 0 127 0" result="hardAlpha"/>
<feOffset/>
<feGaussianBlur stdDeviation="7.87701"/>
<feColorMatrix type="matrix" values="0 0 0 0 0 0 0 0 0 0 0 0 0 0 0 0 0 0 0.03 0"/>
<feBlend mode="normal" in2="BackgroundImageFix" result="effect1_dropShadow"/>
<feBlend mode="normal" in="SourceGraphic" in2="effect1_dropShadow" result="shape"/>
</filter>
<linearGradient id="paint0_linear" x1="269.5" y1="53" x2="269.5" y2="316" gradientUnits="userSpaceOnUse">
<stop stop-color="#E6E8EA"/>
<stop offset="0.85107" stop-color="#E6E8EA"/>
<stop offset="1" stop-color="#E6E8EA" stop-opacity="0"/>
</linearGradient>
<linearGradient id="paint1_linear" x1="291" y1="37" x2="251" y2="37" gradientUnits="userSpaceOnUse">
<stop stop-color="#929AA5"/>
<stop offset="1" stop-color="#76808F"/>
</linearGradient>
<linearGradient id="paint2_linear" x1="7.24138" y1="0" x2="7.24138" y2="14.4828" gradientUnits="userSpaceOnUse">
<stop stop-color="#F0B90B"/>
<stop offset="1" stop-color="#F8D33A"/>
</linearGradient>
<linearGradient id="paint3_linear" x1="251" y1="46" x2="291" y2="46" gradientUnits="userSpaceOnUse">
<stop stop-color="#F0B90B"/>
<stop offset="1" stop-color="#F8D33A"/>
</linearGradient>
<linearGradient id="paint4_linear" x1="129.88" y1="94.4789" x2="129.88" y2="108" gradientUnits="userSpaceOnUse">
<stop stop-color="#76808F"/>
<stop offset="1" stop-color="#929AA5"/>
</linearGradient>
<linearGradient id="paint5_linear" x1="129.88" y1="93.2113" x2="129.88" y2="118" gradientUnits="userSpaceOnUse">
<stop stop-color="#76808F"/>
<stop offset="1" stop-color="#929AA5"/>
</linearGradient>
<linearGradient id="paint6_linear" x1="135" y1="104" x2="135" y2="82" gradientUnits="userSpaceOnUse">
<stop stop-color="#F0B90B"/>
<stop offset="1" stop-color="#F8D33A"/>
</linearGradient>
<linearGradient id="paint7_linear" x1="135" y1="115" x2="135" y2="105" gradientUnits="userSpaceOnUse">
<stop stop-color="#F0B90B"/>
<stop offset="1" stop-color="#F8D33A"/>
</linearGradient>
<linearGradient id="paint8_linear" x1="7.08333" y1="0" x2="7.08333" y2="7.5" gradientUnits="userSpaceOnUse">
<stop stop-color="#F0B90B"/>
<stop offset="1" stop-color="#F8D33A"/>
</linearGradient>
<linearGradient id="paint9_linear" x1="101.75" y1="236.083" x2="101.75" y2="243.583" gradientUnits="userSpaceOnUse">
<stop stop-color="#F0B90B"/>
<stop offset="1" stop-color="#F8D33A"/>
</linearGradient>
<linearGradient id="paint10_linear" x1="6.25" y1="0" x2="6.25" y2="17.9167" gradientUnits="userSpaceOnUse">
<stop stop-color="#F0B90B"/>
<stop offset="1" stop-color="#F8D33A"/>
</linearGradient>
<linearGradient id="paint11_linear" x1="99.25" y1="254" x2="99.25" y2="271.917" gradientUnits="userSpaceOnUse">
<stop stop-color="#F0B90B"/>
<stop offset="1" stop-color="#F8D33A"/>
</linearGradient>
<linearGradient id="paint12_linear" x1="78.0001" y1="236.083" x2="78.0001" y2="254" gradientUnits="userSpaceOnUse">
<stop stop-color="#929AA5"/>
<stop offset="1" stop-color="#76808F"/>
</linearGradient>
<linearGradient id="paint13_linear" x1="77.9999" y1="228.583" x2="77.9999" y2="222.333" gradientUnits="userSpaceOnUse">
<stop stop-color="#929AA5"/>
<stop offset="1" stop-color="#76808F"/>
</linearGradient>
<linearGradient id="paint14_linear" x1="303.636" y1="243.786" x2="303.636" y2="271.523" gradientUnits="userSpaceOnUse">
<stop/>
<stop offset="1" stop-opacity="0"/>
</linearGradient>
<linearGradient id="paint15_linear" x1="233.074" y1="243.786" x2="233.074" y2="271.523" gradientUnits="userSpaceOnUse">
<stop/>
<stop offset="1" stop-opacity="0"/>
</linearGradient>
<linearGradient id="paint16_linear" x1="268.27" y1="260.18" x2="268.27" y2="299.095" gradientUnits="userSpaceOnUse">
<stop/>
<stop offset="1" stop-opacity="0"/>
</linearGradient>
<linearGradient id="paint17_linear" x1="290.624" y1="188.967" x2="290.624" y2="167.998" gradientUnits="userSpaceOnUse">
<stop/>
<stop offset="1" stop-opacity="0"/>
</linearGradient>
<linearGradient id="paint18_linear" x1="245.163" y1="188.979" x2="245.163" y2="168.01" gradientUnits="userSpaceOnUse">
<stop/>
<stop offset="1" stop-opacity="0"/>
</linearGradient>
<linearGradient id="paint19_linear" x1="407" y1="86" x2="407" y2="122" gradientUnits="userSpaceOnUse">
<stop stop-color="#929AA5"/>
<stop offset="1" stop-color="#76808F"/>
</linearGradient>
<linearGradient id="paint20_linear" x1="407" y1="113.5" x2="407" y2="94.5" gradientUnits="userSpaceOnUse">
<stop stop-color="#F0B90B"/>
<stop offset="1" stop-color="#F8D33A"/>
</linearGradient>
<linearGradient id="paint21_linear" x1="462" y1="219" x2="462" y2="259" gradientUnits="userSpaceOnUse">
<stop stop-color="#F0B90B"/>
<stop offset="1" stop-color="#F8D33A"/>
</linearGradient>
<linearGradient id="paint22_linear" x1="18.3333" y1="0" x2="18.3333" y2="36.6667" gradientUnits="userSpaceOnUse">
<stop stop-color="#F0B90B"/>
<stop offset="1" stop-color="#F8D33A"/>
</linearGradient>
</defs>
</svg>
